<svg id="visual" viewBox="0 0 900 600" width="900" height="600" xmlns="http://www.w3.org/2000/svg" xmlns:xlink="http://www.w3.org/1999/xlink" version="1.1"><rect x="0" y="0" width="900" height="600" fill="#001220"></rect><defs><linearGradient id="grad1_0" x1="33.3%" y1="100%" x2="100%" y2="0%"><stop offset="20%" stop-color="#f69558" stop-opacity="1"></stop><stop offset="80%" stop-color="#f69558" stop-opacity="1"></stop></linearGradient></defs><defs><linearGradient id="grad1_1" x1="33.3%" y1="100%" x2="100%" y2="0%"><stop offset="20%" stop-color="#f69558" stop-opacity="1"></stop><stop offset="80%" stop-color="#82446c" stop-opacity="1"></stop></linearGradient></defs><defs><linearGradient id="grad1_2" x1="33.3%" y1="100%" x2="100%" y2="0%"><stop offset="20%" stop-color="#001220" stop-opacity="1"></stop><stop offset="80%" stop-color="#82446c" stop-opacity="1"></stop></linearGradient></defs><defs><linearGradient id="grad2_0" x1="0%" y1="100%" x2="66.7%" y2="0%"><stop offset="20%" stop-color="#f69558" stop-opacity="1"></stop><stop offset="80%" stop-color="#f69558" stop-opacity="1"></stop></linearGradient></defs><defs><linearGradient id="grad2_1" x1="0%" y1="100%" x2="66.7%" y2="0%"><stop offset="20%" stop-color="#82446c" stop-opacity="1"></stop><stop offset="80%" stop-color="#f69558" stop-opacity="1"></stop></linearGradient></defs><defs><linearGradient id="grad2_2" x1="0%" y1="100%" x2="66.7%" y2="0%"><stop offset="20%" stop-color="#82446c" stop-opacity="1"></stop><stop offset="80%" stop-color="#001220" stop-opacity="1"></stop></linearGradient></defs><g transform="translate(900, 600)"><path d="M-351.5 0C-339.8 -24.2 -328.1 -48.4 -323.7 -73.9C-319.3 -99.3 -322.2 -126 -316.7 -152.5C-311.3 -179 -297.4 -205.3 -272.9 -217.6C-248.3 -229.9 -213.2 -228.4 -189.5 -237.7C-165.9 -247 -153.7 -267.1 -136.7 -283.8C-119.6 -300.5 -97.7 -313.9 -74.1 -324.7C-50.5 -335.4 -25.3 -343.5 0 -351.5L0 0Z" fill="#352e50"></path><path d="M-234.4 0C-226.5 -16.1 -218.7 -32.3 -215.8 -49.3C-212.8 -66.2 -214.8 -84 -211.2 -101.7C-207.5 -119.3 -198.2 -136.8 -181.9 -145.1C-165.6 -153.3 -142.1 -152.3 -126.4 -158.5C-110.6 -164.6 -102.5 -178 -91.1 -189.2C-79.8 -200.4 -65.1 -209.3 -49.4 -216.4C-33.7 -223.6 -16.8 -229 0 -234.4L0 0Z" fill="#cb616c"></path><path d="M-117.2 0C-113.3 -8.1 -109.4 -16.1 -107.9 -24.6C-106.4 -33.1 -107.4 -42 -105.6 -50.8C-103.8 -59.7 -99.1 -68.4 -91 -72.5C-82.8 -76.6 -71.1 -76.1 -63.2 -79.2C-55.3 -82.3 -51.2 -89 -45.6 -94.6C-39.9 -100.2 -32.6 -104.6 -24.7 -108.2C-16.8 -111.8 -8.4 -114.5 0 -117.2L0 0Z" fill="#f69558"></path></g><g transform="translate(0, 0)"><path d="M351.5 0C348.4 25.8 345.2 51.7 340.2 77.7C335.3 103.7 328.7 129.8 316.7 152.5C304.8 175.2 287.6 194.5 272.1 217C256.5 239.4 242.6 265.1 218.2 273.6C193.8 282.2 158.9 273.5 133.2 276.6C107.5 279.7 91.2 294.6 70.5 309.1C49.9 323.5 24.9 337.5 0 351.5L0 0Z" fill="#352e50"></path><path d="M234.4 0C232.2 17.2 230.1 34.4 226.8 51.8C223.5 69.1 219.1 86.5 211.2 101.7C203.2 116.8 191.7 129.7 181.4 144.6C171 159.6 161.8 176.8 145.5 182.4C129.2 188.1 105.9 182.3 88.8 184.4C71.7 186.5 60.8 196.4 47 206C33.3 215.7 16.6 225 0 234.4L0 0Z" fill="#cb616c"></path><path d="M117.2 0C116.1 8.6 115.1 17.2 113.4 25.9C111.8 34.6 109.6 43.3 105.6 50.8C101.6 58.4 95.9 64.8 90.7 72.3C85.5 79.8 80.9 88.4 72.7 91.2C64.6 94.1 53 91.2 44.4 92.2C35.8 93.2 30.4 98.2 23.5 103C16.6 107.8 8.3 112.5 0 117.2L0 0Z" fill="#f69558"></path></g></svg>