<svg id="visual" viewBox="0 0 900 600" width="900" height="600" xmlns="http://www.w3.org/2000/svg" xmlns:xlink="http://www.w3.org/1999/xlink" version="1.1"><rect x="0" y="0" width="900" height="600" fill="#000000"></rect><defs><linearGradient id="grad1_0" x1="33.3%" y1="100%" x2="100%" y2="0%"><stop offset="20%" stop-color="#fbae3c" stop-opacity="1"></stop><stop offset="80%" stop-color="#fbae3c" stop-opacity="1"></stop></linearGradient></defs><defs><linearGradient id="grad1_1" x1="33.3%" y1="100%" x2="100%" y2="0%"><stop offset="20%" stop-color="#fbae3c" stop-opacity="1"></stop><stop offset="80%" stop-color="#ac6c00" stop-opacity="1"></stop></linearGradient></defs><defs><linearGradient id="grad1_2" x1="33.3%" y1="100%" x2="100%" y2="0%"><stop offset="20%" stop-color="#642f00" stop-opacity="1"></stop><stop offset="80%" stop-color="#ac6c00" stop-opacity="1"></stop></linearGradient></defs><defs><linearGradient id="grad1_3" x1="33.3%" y1="100%" x2="100%" y2="0%"><stop offset="20%" stop-color="#642f00" stop-opacity="1"></stop><stop offset="80%" stop-color="#000000" stop-opacity="1"></stop></linearGradient></defs><defs><linearGradient id="grad2_0" x1="0%" y1="100%" x2="66.7%" y2="0%"><stop offset="20%" stop-color="#fbae3c" stop-opacity="1"></stop><stop offset="80%" stop-color="#fbae3c" stop-opacity="1"></stop></linearGradient></defs><defs><linearGradient id="grad2_1" x1="0%" y1="100%" x2="66.7%" y2="0%"><stop offset="20%" stop-color="#ac6c00" stop-opacity="1"></stop><stop offset="80%" stop-color="#fbae3c" stop-opacity="1"></stop></linearGradient></defs><defs><linearGradient id="grad2_2" x1="0%" y1="100%" x2="66.7%" y2="0%"><stop offset="20%" stop-color="#ac6c00" stop-opacity="1"></stop><stop offset="80%" stop-color="#642f00" stop-opacity="1"></stop></linearGradient></defs><defs><linearGradient id="grad2_3" x1="0%" y1="100%" x2="66.7%" y2="0%"><stop offset="20%" stop-color="#000000" stop-opacity="1"></stop><stop offset="80%" stop-color="#642f00" stop-opacity="1"></stop></linearGradient></defs><g transform="translate(900, 600)"><path d="M-351.5 0C-349.9 -37.6 -348.2 -75.2 -334.3 -108.6C-320.5 -142 -294.4 -171.2 -265.4 -192.8C-236.3 -214.3 -204.3 -228.2 -175.7 -241.9C-147.2 -255.6 -122 -269 -93.3 -287.2C-64.6 -305.5 -32.3 -328.5 0 -351.5L0 0Z" fill="#471200"></path><path d="M-263.7 0C-262.4 -28.2 -261.2 -56.4 -250.8 -81.5C-240.3 -106.5 -220.8 -128.4 -199 -144.6C-177.2 -160.8 -153.2 -171.2 -131.8 -181.4C-110.4 -191.7 -91.5 -201.7 -70 -215.4C-48.5 -229.1 -24.2 -246.4 0 -263.7L0 0Z" fill="#874d00"></path><path d="M-175.8 0C-174.9 -18.8 -174.1 -37.6 -167.2 -54.3C-160.2 -71 -147.2 -85.6 -132.7 -96.4C-118.2 -107.2 -102.2 -114.1 -87.9 -120.9C-73.6 -127.8 -61 -134.5 -46.7 -143.6C-32.3 -152.7 -16.2 -164.2 0 -175.8L0 0Z" fill="#d38c13"></path><path d="M-87.9 0C-87.5 -9.4 -87.1 -18.8 -83.6 -27.2C-80.1 -35.5 -73.6 -42.8 -66.3 -48.2C-59.1 -53.6 -51.1 -57.1 -43.9 -60.5C-36.8 -63.9 -30.5 -67.2 -23.3 -71.8C-16.2 -76.4 -8.1 -82.1 0 -87.9L0 0Z" fill="#fbae3c"></path></g><g transform="translate(0, 0)"><path d="M351.5 0C333.1 33.6 314.6 67.2 296.7 96.4C278.9 125.6 261.7 150.5 245.9 178.7C230.2 206.9 216 238.5 194 267C172 295.4 142.3 320.8 108.6 334.3C75 347.9 37.5 349.7 0 351.5L0 0Z" fill="#471200"></path><path d="M263.7 0C249.8 25.2 235.9 50.4 222.5 72.3C209.2 94.2 196.3 112.8 184.5 134C172.7 155.2 162 178.9 145.5 200.2C129 221.6 106.7 240.6 81.5 250.8C56.3 260.9 28.1 262.3 0 263.7L0 0Z" fill="#874d00"></path><path d="M175.8 0C166.5 16.8 157.3 33.6 148.4 48.2C139.4 62.8 130.8 75.2 123 89.3C115.1 103.5 108 119.3 97 133.5C86 147.7 71.1 160.4 54.3 167.2C37.5 174 18.8 174.9 0 175.8L0 0Z" fill="#d38c13"></path><path d="M87.9 0C83.3 8.4 78.6 16.8 74.2 24.1C69.7 31.4 65.4 37.6 61.5 44.7C57.6 51.7 54 59.6 48.5 66.7C43 73.9 35.6 80.2 27.2 83.6C18.8 87 9.4 87.4 0 87.9L0 0Z" fill="#fbae3c"></path></g></svg>